{"title":"Star Trek.2009.x264.AC3(5.1).mkv","uid":5432294,"size":1629652340,"categoryP":"video","categoryS":"movies","magnet":"?xt=urn:btih:0c55a4145a18afeafa4f9e54a6e327448b3615f4&amp;dn=Star+Trek.2009.x264.AC3%285.1%29.mkv&amp;tr=udp%3A%2F%2Ftracker.openbittorrent.com%3A80&amp;tr=udp%3A%2F%2Fopen.demonii.com%3A1337&amp;tr=udp%3A%2F%2Ftracker.coppersurfer.tk%3A6969&amp;tr=udp%3A%2F%2Fexodus.desync.com%3A6969","seeders":0,"leechers":0,"uploader":"Zen_Bud","files":-1,"time":1268471531,"description":"General\nComplete name                    : Star Trek.mkv\nFormat                           : Matroska\nFile size                        : 1.52 GiB\nDuration                         : 2h 1mn\nOverall bit rate                 : 1 786 Kbps\n\n\nVideo\nID                               : 1\nFormat                           : AVC\nDuration                         : 2h 1mn\nBit rate                         : 1 303 Kbps\nWidth                            : 718 pixels\nHeight                           : 428 pixels\nDisplay aspect ratio             : 2.35:1\nFrame rate                       : 25.000 fps\nResolution                       : 8 bits\nColorimetry                      : 4:2:0\nScan type                        : Progressive\nBits/(Pixel*Frame)               : 0.170\nStream size                      : 1.11 GiB (73%)\nWriting library                  : x264 core 79\n\nAudio\nID                               : 2\nFormat                           : AC-3\nFormat/Info                      : Audio Coding 3\nCodec ID                         : A_AC3\nDuration                         : 2h 1mn\nBit rate mode                    : Constant\nBit rate                         : 448 Kbps\nChannel(s)                       : 6 channels\nChannel positions                : Front: L C R, Surround: L R, LFE\nSampling rate                    : 48.0 KHz\nStream size                      : 390 MiB (25%)\nLanguage                         : English\n\nText #1\nLanguage                         : Finnish\n\nText #2\nLanguage                         : Danish\n\nText #3\nLanguage                         : Norwegian\n\nText #4\nLanguage                         : Swedish\n\nText #5\nLanguage                         : Dutch\n\nText #6\nLanguage                         : English\n\n","torrent":{"xt":"urn:btih:0c55a4145a18afeafa4f9e54a6e327448b3615f4","amp;dn":"Star+Trek.2009.x264.AC3%285.1%29.mkv","amp;tr":["udp%3A%2F%2Ftracker.openbittorrent.com%3A80","udp%3A%2F%2Fopen.demonii.com%3A1337","udp%3A%2F%2Ftracker.coppersurfer.tk%3A6969","udp%3A%2F%2Fexodus.desync.com%3A6969"],"infoHash":"0c55a4145a18afeafa4f9e54a6e327448b3615f4","infoHashBuffer":{"type":"Buffer","data":[12,85,164,20,90,24,175,234,250,79,158,84,166,227,39,68,139,54,21,244]},"announce":[],"urlList":[]}}